<?xml version="1.0" encoding="UTF-8" standalone="no"?>
<svg
   xmlns:dc="http://purl.org/dc/elements/1.1/"
   xmlns:cc="http://creativecommons.org/ns#"
   xmlns:rdf="http://www.w3.org/1999/02/22-rdf-syntax-ns#"
   xmlns:svg="http://www.w3.org/2000/svg"
   xmlns="http://www.w3.org/2000/svg"
   xmlns:sodipodi="http://sodipodi.sourceforge.net/DTD/sodipodi-0.dtd"
   xmlns:inkscape="http://www.inkscape.org/namespaces/inkscape"
   version="1.1"
   id="svg2"
   xml:space="preserve"
   width="1706.6667"
   height="1066.6667"
   viewBox="0 0 1706.6667 1066.6667"
   sodipodi:docname="odds_logo.ai"><metadata
     id="metadata8"><rdf:RDF><cc:Work
         rdf:about=""><dc:format>image/svg+xml</dc:format><dc:type
           rdf:resource="http://purl.org/dc/dcmitype/StillImage" /></cc:Work></rdf:RDF></metadata><defs
     id="defs6"><clipPath
       clipPathUnits="userSpaceOnUse"
       id="clipPath18"><path
         d="M 0,800 H 1280 V 0 H 0 Z"
         id="path16" /></clipPath></defs><sodipodi:namedview
     pagecolor="#ffffff"
     bordercolor="#666666"
     borderopacity="1"
     objecttolerance="10"
     gridtolerance="10"
     guidetolerance="10"
     inkscape:pageopacity="0"
     inkscape:pageshadow="2"
     inkscape:window-width="640"
     inkscape:window-height="480"
     id="namedview4" /><g
     id="g10"
     inkscape:groupmode="layer"
     inkscape:label="odds_logo"
     transform="matrix(1.3333333,0,0,-1.3333333,0,1066.6667)"><g
       id="g12"><g
         id="g14"
         clip-path="url(#clipPath18)"><g
           id="g20"
           transform="translate(1042.0361,541.5747)"><path
             d="m 0,0 c -40.944,0 -69.355,-26.208 -69.355,-61.575 0,-30.61 17.626,-55.351 58.22,-69.215 37.399,-12.75 44.939,-34.607 44.939,-54.289 0,-28.738 -25.865,-59.348 -73.7,-59.348 -20.122,0 -35.951,3.289 -49.232,10.574 l -0.35,-0.404 31.607,-28.384 c 6.142,-5.465 15.479,-10.929 37.399,-10.929 51.43,0 88.779,42.955 88.779,88.491 0,62.334 -51.38,81.257 -71.153,88.189 -14.381,5.11 -32.007,14.571 -32.007,34.607 0,17.101 12.933,27.676 34.853,27.676 20.871,0 38.497,-10.221 44.239,-10.221 9.687,0 17.277,7.691 17.277,17.506 0,6.932 -3.595,12.751 -10.086,15.685 C 47.485,-9.815 23.768,0 0,0 m -275.723,-1.821 c -9.686,0 -17.276,-7.64 -17.276,-17.102 v -174.503 h 34.153 v 156.997 h 22.32 c 54.625,0 98.864,-44.827 98.864,-100.179 0,-55.351 -44.239,-100.18 -98.864,-100.18 h -77.644 c -2.547,0 -5.043,0.355 -7.19,1.468 l 30.908,-31.318 c 2.846,-2.935 7.189,-4.756 11.483,-4.756 h 42.443 c 73.349,0 133.017,60.461 133.017,134.786 0,74.679 -59.668,134.787 -133.017,134.787 z m -248.759,0 c -9.737,0 -17.277,-7.64 -17.277,-17.102 v -174.503 h 34.154 v 156.997 h 22.269 c 54.675,0 98.865,-44.827 98.865,-100.179 0,-55.351 -44.19,-100.18 -98.865,-100.18 h -77.643 c -2.497,0 -5.044,0.355 -7.19,1.468 l 30.907,-31.318 c 2.896,-2.935 7.19,-4.756 11.534,-4.756 h 42.392 c 73.35,0 133.019,60.461 133.019,134.786 0,74.679 -59.669,134.787 -133.019,134.787 z M -730.5,0 c -71.902,0 -103.559,-58.286 -103.559,-100.179 0,-91.072 70.504,-96.183 78.393,-96.536 v 0.353 c -24.816,7.286 -49.981,36.43 -49.981,77.968 0,49.18 31.307,83.787 75.846,83.787 46.736,0 94.571,-42.601 94.571,-101.292 0,-50.242 -37.399,-104.177 -114.344,-104.177 -58.92,0 -116.441,40.426 -122.582,108.578 h -0.35 v -4.401 c 0,-76.097 60.767,-137.671 135.914,-137.671 74.748,0 135.515,61.574 135.515,137.671 C -601.077,-58.286 -663.991,0 -730.5,0"
             style="fill:#000000;fill-opacity:1;fill-rule:nonzero;stroke:none"
             id="path22" /></g><g
           id="g24"
           transform="translate(1042.0361,502.6162)"><path
             d="m 0,0 c -18.325,0 -30.908,-8.399 -30.908,-22.262 0,-9.461 3.246,-14.571 7.19,-18.569 6.491,3.289 15.479,8.753 33.105,5.111 8.239,-1.468 14.381,0.708 18.325,4.351 l 24.417,22.262 -0.35,0.354 C 49.632,-9.512 47.136,-10.22 44.239,-10.22 35.951,-10.22 20.172,0 0,0 m -46.337,30.56 c -29.51,-13.104 -49.632,-42.602 -49.632,-76.855 0,-67.039 70.803,-81.61 78.742,-84.141 10.786,-3.997 12.583,-11.282 12.583,-15.684 0,-7.64 -10.086,-20.035 -35.252,-20.035 -17.625,0 -24.417,2.933 -30.907,5.464 -2.147,1.113 -4.694,1.821 -7.19,1.821 -9.687,0 -17.277,-7.64 -17.277,-17.455 0,-6.578 3.595,-12.397 9.387,-15.331 8.589,-4.351 20.473,-9.461 45.987,-9.461 45.289,0 69.755,28.434 69.755,54.997 0,21.149 -9.687,39.01 -42.442,50.292 -42.392,14.926 -60.717,40.78 -60.717,73.212 0,28.08 15.779,44.827 27.313,52.822 z M -326.753,-4.047 c -2.895,-2.885 -4.693,-7.286 -4.693,-11.992 v -159.933 c 0,-9.815 7.539,-17.506 17.276,-17.506 h 77.644 c 52.129,0 94.52,43.007 94.52,95.829 0,52.821 -42.391,95.827 -94.52,95.827 h -17.976 v -34.607 h 17.976 c 33.404,0 60.367,-27.321 60.367,-61.22 0,-33.899 -26.963,-61.221 -60.367,-61.221 h -60.767 V 20.036 c 0,2.529 0.699,5.06 1.448,7.286 z m -248.809,0 c -2.847,-2.885 -4.644,-7.286 -4.644,-11.992 v -159.933 c 0,-9.815 7.539,-17.506 17.227,-17.506 h 77.643 c 52.129,0 94.57,43.007 94.57,95.829 0,52.821 -42.441,95.827 -94.57,95.827 h -17.975 v -34.607 h 17.975 c 33.455,0 60.418,-27.321 60.418,-61.22 0,-33.899 -26.963,-61.221 -60.418,-61.221 h -60.717 V 20.036 c 0,2.529 0.699,5.06 1.399,7.286 z m -200.576,38.654 c -48.933,-14.976 -92.074,-60.512 -92.074,-117.685 0,-65.571 54.675,-114.042 118.638,-114.042 73.699,0 110.049,51 110.049,100.179 0,55.756 -45.338,96.941 -90.276,96.941 -44.19,0 -71.502,-34.607 -71.502,-79.435 0,-8.753 1.048,-14.926 1.398,-16.747 h 0.399 c 0.699,34.607 28.361,62.991 62.914,62.991 33.055,0 62.914,-28.03 62.914,-63.75 0,-33.14 -25.166,-65.572 -71.552,-65.572 -46.736,0 -93.123,27.322 -93.123,101.292 0,39.718 25.865,79.435 62.565,95.424 z"
             style="fill:#1498d5;fill-opacity:1;fill-rule:nonzero;stroke:none"
             id="path26" /></g></g></g></g></svg>
